<?xml version="1.0" encoding="UTF-8" standalone="no"?>
<svg
   width="64"
   height="64"
   viewBox="0 0 16 16"
   version="1.1"
   id="svg2"
   sodipodi:docname="issues.svg"
   inkscape:version="1.3.2 (1:1.3.2+202311252150+091e20ef0f)"
   xmlns:inkscape="http://www.inkscape.org/namespaces/inkscape"
   xmlns:sodipodi="http://sodipodi.sourceforge.net/DTD/sodipodi-0.dtd"
   xmlns="http://www.w3.org/2000/svg"
   xmlns:svg="http://www.w3.org/2000/svg">
  <defs
     id="defs2" />
  <sodipodi:namedview
     id="namedview2"
     pagecolor="#ffffff"
     bordercolor="#666666"
     borderopacity="1.0"
     inkscape:showpageshadow="2"
     inkscape:pageopacity="0.0"
     inkscape:pagecheckerboard="0"
     inkscape:deskcolor="#d1d1d1"
     inkscape:zoom="18.796875"
     inkscape:cx="31.9734"
     inkscape:cy="32"
     inkscape:window-width="2560"
     inkscape:window-height="1403"
     inkscape:window-x="2560"
     inkscape:window-y="0"
     inkscape:window-maximized="1"
     inkscape:current-layer="svg2" />
  <rect
     x="0"
     y="0"
     width="16"
     height="16"
     rx="8"
     fill="none"
     id="rect1" />
  <svg
     viewBox="0 0 16 16"
     fill="#F57900"
     x="0"
     y="0"
     width="16"
     height="16"
     version="1.1"
     id="svg1"
     style="fill:#0a7d91;fill-opacity:1">
    <path
       fill="#F57900"
       d="M0 2.75C0 1.784.784 1 1.75 1h12.5c.966 0 1.75.784 1.75 1.75v10.5A1.75 1.75 0 0 1 14.25 15H1.75A1.75 1.75 0 0 1 0 13.25Zm1.75-.25a.25.25 0 0 0-.25.25v10.5c0 .138.112.25.25.25h12.5a.25.25 0 0 0 .25-.25V2.75a.25.25 0 0 0-.25-.25ZM7.25 8a.749.749 0 0 1-.22.53l-2.25 2.25a.749.749 0 0 1-1.275-.326a.749.749 0 0 1 .215-.734L5.44 8L3.72 6.28a.749.749 0 0 1 .326-1.275a.749.749 0 0 1 .734.215l2.25 2.25c.141.14.22.331.22.53Zm1.5 1.5h3a.75.75 0 0 1 0 1.5h-3a.75.75 0 0 1 0-1.5Z"
       id="path1"
       style="fill:#0a7d91;fill-opacity:1" />
  </svg>
</svg>
